HIERARCHY
ROOT Hips
{
	OFFSET 15.979597 102.806511 3.163187
	CHANNELS 6 Xposition Yposition Zposition Xrotation Yrotation Zrotation
	JOINT Chest
	{
		OFFSET 1.125391 13.391228 2.358565
		CHANNELS 3 Xrotation Yrotation Zrotation
		JOINT Chest2
		{
			OFFSET 1.863634 20.899231 4.337699
			CHANNELS 3 Xrotation Yrotation Zrotation
			JOINT Chest3
			{
				OFFSET 0.690657 14.904800 -0.435779
				CHANNELS 3 Xrotation Yrotation Zrotation
				JOINT Neck
				{
					OFFSET 2.398256 16.979858 2.132829
					CHANNELS 3 Xrotation Yrotation Zrotation
					JOINT Head
					{
						OFFSET 2.522085 9.836609 2.589969
						CHANNELS 3 Xrotation Yrotation Zrotation
						End Site
						{
							OFFSET 2.526173 9.853958 2.519076
						}
					}
				}
				JOINT LeftCollar
				{
					OFFSET 6.036100 12.089935 4.382170
					CHANNELS 3 Xrotation Yrotation Zrotation
					JOINT LeftUpArm
					{
						OFFSET 15.128096 6.392136 -6.227408
						CHANNELS 3 Xrotation Yrotation Zrotation
						JOINT LeftLowArm
						{
							OFFSET 10.979580 30.205154 10.335621
							CHANNELS 3 Xrotation Yrotation Zrotation
							JOINT LeftHand
							{
								OFFSET -16.079880 24.856155 4.955393
								CHANNELS 3 Xrotation Yrotation Zrotation
								End Site
								{
									OFFSET -3.514328 5.432480 1.083021
								}
							}
						}
					}
				}
				JOINT RightCollar
				{
					OFFSET -2.298603 13.238449 4.611792
					CHANNELS 3 Xrotation Yrotation Zrotation
					JOINT RightUpArm
					{
						OFFSET -12.611071 10.289459 -6.601834
						CHANNELS 3 Xrotation Yrotation Zrotation
						JOINT RightLowArm
						{
							OFFSET -4.021942 31.765564 10.700779
							CHANNELS 3 Xrotation Yrotation Zrotation
							JOINT RightHand
							{
								OFFSET 21.221302 20.769730 4.385202
								CHANNELS 3 Xrotation Yrotation Zrotation
								End Site
								{
									OFFSET 4.638136 4.539429 0.958426
								}
							}
						}
					}
				}
			}
		}
	}
	JOINT LeftUpLeg
	{
		OFFSET 9.974649 -0.727631 -0.629337
		CHANNELS 3 Xrotation Yrotation Zrotation
		JOINT LeftLowLeg
		{
			OFFSET 11.648624 -45.728954 4.142756
			CHANNELS 3 Xrotation Yrotation Zrotation
			JOINT LeftFoot
			{
				OFFSET -19.052900 -24.153240 -32.468086
				CHANNELS 3 Xrotation Yrotation Zrotation
				JOINT LeftToe
				{
					OFFSET -5.518954 -22.992491 -0.668121
					CHANNELS 3 Xrotation Yrotation Zrotation
					End Site
					{
						OFFSET 2.286663 -19.729868 12.847659
					}
				}
			}
		}
	}
	JOINT RightUpLeg
	{
		OFFSET -9.974670 0.727440 0.629303
		CHANNELS 3 Xrotation Yrotation Zrotation
		JOINT RightLowLeg
		{
			OFFSET 5.580577 -44.963734 13.825089
			CHANNELS 3 Xrotation Yrotation Zrotation
			JOINT RightFoot
			{
				OFFSET 9.692417 -40.419228 -16.520401
				CHANNELS 3 Xrotation Yrotation Zrotation
				JOINT RightToe
				{
					OFFSET 5.037971 -18.925495 13.266557
					CHANNELS 3 Xrotation Yrotation Zrotation
					End Site
					{
						OFFSET -0.941933 -7.353498 22.463192
					}
				}
			}
		}
	}
}
MOTION
Frames: 10
Frame Time: 0.033333
4.837399 105.813881 -1.111726 -1.190714 -4.413587 3.079881 -2.346399 -1.594896 3.931637 3.515275 1.895037 -1.050245 -0.130978 5.456187 1.761648 -7.691695 -3.578177 8.666526 0.000000 -0.000000 0.000001 13.193148 2.548865 -54.593296 27.686792 -8.779884 -95.851719 38.551900 20.396144 -46.224446 0.000003 -0.000006 0.000001 12.227415 -6.121962 60.124974 32.227295 -3.723882 89.526998 39.630930 -24.262521 46.200451 -0.000005 0.000002 0.000003 13.312892 -0.429279 -15.005115 -42.802975 -16.025721 38.145466 -15.299484 -3.346329 -4.545277 0.000003 0.000001 -0.000000 21.832235 -2.944561 -12.399498 -25.568330 -10.461417 -8.401123 -4.516557 13.754407 2.075820 0.000002 -0.000002 0.000001 
4.834229 105.818642 -1.110896 -0.919273 -4.123085 3.063785 -2.375464 -1.589348 3.988787 3.395923 1.874513 -1.013553 -0.030607 5.182215 1.734705 -7.751642 -3.509315 8.632182 0.000000 0.000000 -0.000001 13.101986 2.854085 -54.723097 27.627179 -8.795399 -95.710170 38.781582 20.245007 -46.221871 0.000003 0.000001 -0.000001 12.281617 -5.510088 59.986840 32.065068 -4.076446 89.712609 39.827062 -24.157322 45.772181 -0.000003 -0.000004 0.000004 12.822543 -0.426728 -14.864925 -42.339817 -16.050292 38.061847 -15.518067 -3.342225 -4.764292 0.000001 0.000000 -0.000002 21.431342 -2.825466 -12.326465 -25.276794 -10.231298 -8.313628 -4.732573 13.344063 2.126084 0.000000 -0.000001 0.000002 
4.824927 105.826530 -1.111734 -1.359527 -4.215138 3.067383 -1.526654 -1.626402 3.859890 2.998272 1.986895 -1.064697 0.085275 5.383535 1.934497 -7.578926 -3.561223 8.693612 0.000000 -0.000000 0.000002 13.072740 3.109283 -54.665528 27.667700 -8.695634 -95.811448 39.033886 20.209883 -46.321817 0.000004 -0.000004 0.000005 12.186594 -5.759897 59.936194 31.984854 -4.501860 89.849008 40.123803 -24.085101 45.870885 -0.000005 -0.000003 0.000002 13.096223 -0.446584 -14.885617 -42.183771 -16.097946 38.098358 -15.513231 -3.363911 -4.839793 0.000001 -0.000001 -0.000001 21.661762 -2.842006 -12.288292 -25.138472 -10.145361 -8.362100 -4.874157 13.481009 2.211205 0.000002 -0.000001 0.000002 
4.814849 105.836914 -1.120454 -1.110252 -4.151058 3.028876 -1.713294 -1.627304 3.905377 3.230105 1.935255 -1.034666 -0.107266 5.259316 1.897657 -7.846647 -3.424067 8.700705 0.000001 -0.000000 -0.000000 13.126910 3.217164 -54.694379 27.650305 -8.936729 -95.569482 39.026045 20.172369 -46.357863 0.000002 0.000000 0.000001 12.287719 -5.500651 59.938373 31.980383 -4.538370 89.753918 40.117826 -23.987353 45.798259 -0.000004 0.000000 0.000003 12.745329 -0.429472 -14.746174 -42.105879 -16.037581 38.025337 -15.409300 -3.368719 -4.845022 0.000004 0.000001 -0.000001 21.374196 -2.785456 -12.203565 -25.125838 -10.114463 -8.344243 -4.885137 13.307859 2.194410 -0.000000 -0.000001 0.000002 
4.803711 105.842117 -1.122440 -1.557690 -4.132439 3.039200 -1.030728 -1.672578 3.851453 3.130531 1.915599 -0.977193 -0.274450 5.247836 1.853719 -7.702442 -3.469793 8.736015 0.000000 -0.000001 0.000003 13.117744 2.952808 -54.731962 27.668418 -8.658687 -95.609541 39.251004 20.127517 -46.097206 -0.000000 -0.000001 -0.000002 12.246664 -5.547482 60.007303 31.983440 -4.553759 89.671641 40.319583 -23.971266 45.403553 -0.000001 -0.000003 0.000001 13.184532 -0.434798 -14.835480 -41.988533 -16.131213 38.104297 -15.572766 -3.399404 -4.795002 0.000003 -0.000001 0.000000 21.615821 -2.817667 -12.201620 -24.722592 -9.998936 -8.330412 -5.528814 13.279724 2.479573 0.000001 -0.000001 -0.000000 
4.793207 105.846916 -1.127731 -1.331965 -4.185832 3.030312 -1.372765 -1.645398 3.841112 3.021151 1.902508 -0.919938 -0.115223 5.287810 1.802115 -7.399292 -3.513178 8.796609 0.000002 -0.000000 0.000001 13.126945 2.702678 -54.709829 27.703707 -8.646126 -95.577289 39.239027 20.154929 -45.982305 0.000001 -0.000002 0.000004 12.170038 -5.893801 59.949745 31.983529 -4.576078 89.802446 40.371732 -23.963927 45.555036 -0.000001 -0.000001 -0.000000 12.993177 -0.439424 -14.791920 -41.859009 -16.145493 38.088178 -15.542176 -3.419048 -4.874636 0.000005 -0.000001 0.000000 21.169468 -2.740062 -12.134407 -24.581325 -9.893427 -8.378425 -5.333369 13.216843 2.398878 -0.000000 -0.000001 -0.000000 
4.781717 105.850929 -1.129228 -1.106352 -3.933543 2.945937 -1.751882 -1.640398 3.962131 2.816826 1.836004 -0.789915 0.175736 5.103455 1.636968 -7.671100 -3.649277 8.859132 0.000001 -0.000001 0.000002 13.158137 2.453920 -54.563205 27.677991 -9.051493 -95.518194 38.978551 20.176285 -45.802678 0.000002 -0.000002 0.000004 12.124489 -6.172630 60.012959 32.051544 -4.531602 89.566238 40.342314 -23.913445 45.849977 0.000002 -0.000005 -0.000002 12.748570 -0.409489 -14.631619 -41.785550 -16.177044 38.043160 -15.921851 -3.413077 -5.028279 0.000001 0.000004 -0.000003 21.017223 -2.675345 -11.997691 -24.764417 -9.941532 -8.364603 -5.644230 13.065751 2.448129 0.000001 -0.000000 -0.000000 
4.769506 105.848763 -1.127802 -1.012781 -3.871429 2.963758 -1.915026 -1.625060 3.975252 2.470969 1.895914 -0.790357 0.443925 4.792168 1.639077 -7.447704 -3.575892 8.708069 0.000001 0.000000 -0.000000 13.128049 2.904942 -54.427015 27.651454 -8.747364 -95.754123 39.388338 19.995683 -46.167417 0.000002 -0.000003 0.000007 12.120732 -6.003936 59.757052 31.962195 -4.698415 89.820423 40.511235 -23.807729 45.946720 -0.000001 -0.000003 -0.000001 13.101842 -0.439685 -14.641035 -42.364060 -16.267735 38.008046 -15.678610 -3.455283 -5.195123 -0.000001 0.000000 -0.000002 21.292229 -2.696836 -11.996696 -25.123019 -10.042602 -8.380759 -5.572696 13.151158 2.408726 -0.000000 -0.000000 -0.000000 
4.758809 105.850121 -1.129296 -0.982449 -4.068905 2.953562 -1.872635 -1.617353 3.963176 2.930921 1.840274 -0.847618 -0.021838 5.138022 1.712026 -7.379615 -3.680555 8.705027 0.000000 0.000000 0.000000 13.035415 2.791046 -54.158114 27.523215 -8.522219 -96.141237 39.503854 19.765085 -46.323378 0.000002 -0.000004 0.000003 12.019042 -6.126164 59.552925 31.765444 -4.951365 90.138498 40.696251 -23.742451 46.056024 -0.000001 -0.000001 -0.000000 13.398533 -0.446643 -14.644088 -42.618420 -16.220069 38.008524 -15.524305 -3.471306 -5.242980 0.000005 -0.000003 0.000001 21.359072 -2.733323 -12.014728 -24.908399 -10.015012 -8.418953 -5.571402 13.531898 2.530695 -0.000002 -0.000001 0.000002 
4.747350 105.848557 -1.130359 -0.693054 -3.921283 3.022898 -2.241561 -1.580949 3.965581 2.515901 1.932308 -0.877152 0.578263 5.196618 1.740452 -7.235099 -3.807475 8.732113 0.000000 0.000000 -0.000000 12.990753 2.604796 -54.078781 27.473632 -8.595347 -96.058517 39.466083 19.705328 -46.722046 0.000003 -0.000000 0.000001 11.890614 -6.452440 59.463825 31.684588 -5.030001 90.262623 40.738226 -23.688641 46.206090 -0.000001 -0.000003 -0.000003 13.046787 -0.438564 -14.680834 -42.459499 -16.190864 38.082918 -15.758787 -3.507727 -5.431130 -0.000001 -0.000003 0.000001 21.153041 -2.721242 -12.045289 -24.923379 -10.063001 -8.433968 -5.520398 13.518839 2.480842 -0.000001 -0.000001 0.000002 
